<svg xmlns="http://www.w3.org/2000/svg" xml:space="preserve" class="ionicon" viewBox="0 0 512 512">
  <path d="M168.4 399.43c-5.48 5.49-14.27 7.63-24.85 9.46-23.77 4.05-44.76-16.49-40.49-40.52 1.63-9.11 6.45-21.88 9.45-24.88a4.37 4.37 0 0 0-3.65-7.45 60 60 0 0 0-35.13 17.12C50.22 376.69 48 464 48 464s87.36-2.22 110.87-25.75A59.69 59.69 0 0 0 176 403.09c.37-4.18-4.72-6.67-7.6-3.66z" style="fill:#e08e49;fill-opacity:1"/>
  <path d="M329.04 337.936c-1.345.917-2.676 1.788-4.054 2.84a263.228 263.228 0 0 1-6.402 4.734 251.85 251.85 0 0 1-6.31 4.377 240.966 240.966 0 0 1-6.208 4.029 231.153 231.153 0 0 1-6.1 3.697 222.061 222.061 0 0 1-5.984 3.38 213.63 213.63 0 0 1-5.86 3.073 205.863 205.863 0 0 1-11.329 5.291 185.524 185.524 0 0 1-10.752 4.236 176.718 176.718 0 0 1-10.117 3.294 165.76 165.76 0 0 1-9.428 2.459c-3.02.693-5.916 1.266-8.678 1.736-2.761.47-5.39.836-7.873 1.12-2.483.282-4.823.48-7.01.612-2.186.133-4.22.2-6.09.22-1.87.018-3.575-.01-5.109-.067a90.18 90.18 0 0 1-4.076-.242 70.078 70.078 0 0 1-2.98-.309c-1.58-.2-2.377-.365-2.409-.371l-9.56 87.045a9.65 9.65 0 0 0 11.2 10.55c26.81-4.3 89.36-20.13 113.15-74.5 8.4-19.27 10.12-41.77 8.18-64.27a317.66 317.66 0 0 0 3.798-2.934zm-174.706-152c-16.801.02-33.132 2.534-47.584 8.834C52.38 218.7 36.55 281.14 32.14 308a9.64 9.64 0 0 0 10.55 11.2l86.44-9.534.37-.277s-.726-40.692 41.084-122.639l.045-.092c-5.449-.466-10.897-.729-16.295-.722z" style="fill:#265881;fill-opacity:1"/>
  <path d="M448.799 32.209c-66.143 1.176-177.775 48.262-241.93 112.39a317 317 0 0 0-35.629 42.1c-.204-.018-.407-.023-.611-.04l-.045.091c-41.81 81.947-41.084 122.639-41.084 122.639l-.37.277.87-.096a194.1 194.1 0 0 0 1.19 19.7 19.53 19.53 0 0 0 5.7 12L170.7 375a19.59 19.59 0 0 0 12 5.7 193.53 193.53 0 0 0 19.59 1.19l-.019.155c.032.006.829.171 2.409.371.805.102 1.8.21 2.98.309a90.18 90.18 0 0 0 4.076.242c1.534.058 3.24.085 5.11.066 1.87-.02 3.903-.086 6.09-.219 2.186-.132 4.526-.33 7.01-.613 2.483-.283 5.11-.65 7.872-1.119a155.46 155.46 0 0 0 8.678-1.736 165.76 165.76 0 0 0 9.428-2.46 176.72 176.72 0 0 0 10.117-3.292 185.535 185.535 0 0 0 10.752-4.237 197.61 197.61 0 0 0 5.596-2.507 205.85 205.85 0 0 0 5.732-2.784 210.025 210.025 0 0 0 5.861-3.074c1.975-1.075 3.97-2.2 5.985-3.379a231.196 231.196 0 0 0 6.1-3.697 241.07 241.07 0 0 0 6.206-4.03c2.087-1.4 4.192-2.859 6.311-4.376a263.228 263.228 0 0 0 6.402-4.735c1.378-1.05 2.71-1.922 4.053-2.84a317.66 317.66 0 0 0 38.41-32.705C441 232.05 491.741 99.74 477.641 38.26a4.75 4.75 0 0 0-3.551-3.66c-7.321-1.79-15.842-2.559-25.291-2.391zM328 135.979a48 48 0 0 1 33.93 81.95 47.95 47.95 0 0 1-67.86 0 48 48 0 0 1 12.135-76.718A48 48 0 0 1 328 135.979z" style="fill:#4ba3e3;fill-opacity:1"/>
</svg>
